<svg width="690.0" height="1176.0" viewBox="0 0 690.0 1176.0" xmlns="http://www.w3.org/2000/svg">
<style>/* font and background color specifications */
svg {
    font-family: SFMono-Regular,Consolas,Liberation Mono,Menlo,monospace;
    font-size: 14px;
    font-kerning: normal;
    text-rendering: optimizeLegibility;
    fill: #24292e;
    text-transform: lowercase;
}

/* default key styling */
rect {
    fill: #f6f8fa;
    stroke: #c9cccf;
    stroke-width: 1;
}

/* color accent for combo boxes */
rect.combo {
    fill: #cdf;
}

/* color accent for held keys */
rect.held, rect.combo.held {
    fill: #fdd;
}

/* color accent for ghost (optional) keys */
rect.ghost, rect.combo.ghost {
    fill: #ddd;
}

text {
    text-anchor: middle;
    dominant-baseline: middle;
}

/* styling for layer labels */
text.label {
    font-weight: bold;
    text-anchor: start;
    stroke: white;
    stroke-width: 2;
    paint-order: stroke;
}

/* styling for combo tap, and key hold/shifted label text */
text.combo, text.hold, text.shifted {
    font-size: 11px;
}

text.hold {
    text-anchor: middle;
    dominant-baseline: auto;
}

text.shifted {
    text-anchor: middle;
    dominant-baseline: hanging;
}

/* styling for hold/shifted label text in combo box */
text.combo.hold, text.combo.shifted {
    font-size: 8px;
}

/* styling for combo dendrons */
path {
    stroke-width: 1;
    stroke: gray;
    fill: none;
}
</style>
<g class="layer-default">
<text x="30.0" y="28.0" class="label">default:</text>
<rect rx="6.0" ry="6.0" x="32.0" y="86.0" width="56.0" height="52.0" class=""/>
<text x="60.0" y="112.0" class="tap">Q</text>
<rect rx="6.0" ry="6.0" x="92.0" y="58.0" width="56.0" height="52.0" class=""/>
<text x="120.0" y="84.0" class="tap">W</text>
<rect rx="6.0" ry="6.0" x="152.0" y="58.0" width="56.0" height="52.0" class=""/>
<text x="180.0" y="84.0" class="tap">F</text>
<rect rx="6.0" ry="6.0" x="212.0" y="58.0" width="56.0" height="52.0" class=""/>
<text x="240.0" y="84.0" class="tap">P</text>
<rect rx="6.0" ry="6.0" x="272.0" y="86.0" width="56.0" height="52.0" class=""/>
<text x="300.0" y="112.0" class="tap">B</text>
<rect rx="6.0" ry="6.0" x="362.0" y="86.0" width="56.0" height="52.0" class=""/>
<text x="390.0" y="112.0" class="tap">J</text>
<rect rx="6.0" ry="6.0" x="422.0" y="58.0" width="56.0" height="52.0" class=""/>
<text x="450.0" y="84.0" class="tap">L</text>
<rect rx="6.0" ry="6.0" x="482.0" y="58.0" width="56.0" height="52.0" class=""/>
<text x="510.0" y="84.0" class="tap">U</text>
<rect rx="6.0" ry="6.0" x="542.0" y="58.0" width="56.0" height="52.0" class=""/>
<text x="570.0" y="84.0" class="tap">Y</text>
<rect rx="6.0" ry="6.0" x="602.0" y="86.0" width="56.0" height="52.0" class=""/>
<text x="630.0" y="112.0" class="tap">Z</text>
<rect rx="6.0" ry="6.0" x="32.0" y="142.0" width="56.0" height="52.0" class=""/>
<text x="60.0" y="168.0" class="tap">A</text>
<rect rx="6.0" ry="6.0" x="92.0" y="114.0" width="56.0" height="52.0" class=""/>
<text x="120.0" y="140.0" class="tap">R</text>
<rect rx="6.0" ry="6.0" x="152.0" y="114.0" width="56.0" height="52.0" class=""/>
<text x="180.0" y="140.0" class="tap">S</text>
<rect rx="6.0" ry="6.0" x="212.0" y="114.0" width="56.0" height="52.0" class=""/>
<text x="240.0" y="140.0" class="tap">T</text>
<rect rx="6.0" ry="6.0" x="272.0" y="142.0" width="56.0" height="52.0" class=""/>
<text x="300.0" y="168.0" class="tap">G</text>
<rect rx="6.0" ry="6.0" x="362.0" y="142.0" width="56.0" height="52.0" class=""/>
<text x="390.0" y="168.0" class="tap">M</text>
<rect rx="6.0" ry="6.0" x="422.0" y="114.0" width="56.0" height="52.0" class=""/>
<text x="450.0" y="140.0" class="tap">N</text>
<rect rx="6.0" ry="6.0" x="482.0" y="114.0" width="56.0" height="52.0" class=""/>
<text x="510.0" y="140.0" class="tap">E</text>
<rect rx="6.0" ry="6.0" x="542.0" y="114.0" width="56.0" height="52.0" class=""/>
<text x="570.0" y="140.0" class="tap">I</text>
<rect rx="6.0" ry="6.0" x="602.0" y="142.0" width="56.0" height="52.0" class=""/>
<text x="630.0" y="168.0" class="tap">O</text>
<rect rx="6.0" ry="6.0" x="92.0" y="170.0" width="56.0" height="52.0" class=""/>
<text x="120.0" y="196.0" class="tap">V</text>
<rect rx="6.0" ry="6.0" x="152.0" y="170.0" width="56.0" height="52.0" class=""/>
<text x="180.0" y="196.0" class="tap">C</text>
<rect rx="6.0" ry="6.0" x="212.0" y="170.0" width="56.0" height="52.0" class=""/>
<text x="240.0" y="196.0" class="tap">D</text>
<rect rx="6.0" ry="6.0" x="422.0" y="170.0" width="56.0" height="52.0" class=""/>
<text x="450.0" y="196.0" class="tap">H</text>
<rect rx="6.0" ry="6.0" x="482.0" y="170.0" width="56.0" height="52.0" class=""/>
<text x="510.0" y="196.0" class="tap">K</text>
<rect rx="6.0" ry="6.0" x="542.0" y="170.0" width="56.0" height="52.0" class=""/>
<text x="570.0" y="196.0" class="tap">X</text>
<rect rx="6.0" ry="6.0" x="212.0" y="226.0" width="56.0" height="52.0" class=""/>
<text x="240.0" y="252.0" class="tap">nav</text>
<rect rx="6.0" ry="6.0" x="272.0" y="226.0" width="56.0" height="52.0" class=""/>
<text x="300.0" y="252.0" class="tap">SPC</text>
<rect rx="6.0" ry="6.0" x="362.0" y="226.0" width="56.0" height="52.0" class=""/>
<text x="390.0" y="252.0" class="tap">⇧</text>
<rect rx="6.0" ry="6.0" x="422.0" y="226.0" width="56.0" height="52.0" class=""/>
<text x="450.0" y="252.0" class="tap">sym</text>
<rect rx="6.0" ry="6.0" x="106.0" y="99.0" width="28.0" height="26.0" class="combo"/>
<text x="120.0" y="112.0" class="combo">[</text>
<rect rx="6.0" ry="6.0" x="166.0" y="99.0" width="28.0" height="26.0" class="combo"/>
<text x="180.0" y="112.0" class="combo">{</text>
<rect rx="6.0" ry="6.0" x="226.0" y="99.0" width="28.0" height="26.0" class="combo"/>
<text x="240.0" y="112.0" class="combo">(</text>
<rect rx="6.0" ry="6.0" x="556.0" y="99.0" width="28.0" height="26.0" class="combo"/>
<text x="570.0" y="112.0" class="combo">]</text>
<rect rx="6.0" ry="6.0" x="496.0" y="99.0" width="28.0" height="26.0" class="combo"/>
<text x="510.0" y="112.0" class="combo">}</text>
<rect rx="6.0" ry="6.0" x="436.0" y="99.0" width="28.0" height="26.0" class="combo"/>
<text x="450.0" y="112.0" class="combo">)</text>
</g>
<g class="layer-nav">
<text x="30.0" y="308.0" class="label">nav:</text>
<rect rx="6.0" ry="6.0" x="32.0" y="366.0" width="56.0" height="52.0" class=""/>
<text x="60.0" y="392.0" class="tap">⇥</text>
<rect rx="6.0" ry="6.0" x="92.0" y="338.0" width="56.0" height="52.0" class=""/>
<text x="120.0" y="364.0" class="tap">
<tspan x="120.0" dy="-0.6em">SWITCH</tspan><tspan x="120.0" dy="1.2em">APP</tspan></text>
<rect rx="6.0" ry="6.0" x="152.0" y="338.0" width="56.0" height="52.0" class=""/>
<text x="180.0" y="364.0" class="tap">
<tspan x="180.0" dy="-0.6em">TAB</tspan><tspan x="180.0" dy="1.2em">←</tspan></text>
<rect rx="6.0" ry="6.0" x="212.0" y="338.0" width="56.0" height="52.0" class=""/>
<text x="240.0" y="364.0" class="tap">
<tspan x="240.0" dy="-0.6em">TAB</tspan><tspan x="240.0" dy="1.2em">→</tspan></text>
<rect rx="6.0" ry="6.0" x="272.0" y="366.0" width="56.0" height="52.0" class=""/>
<text x="300.0" y="392.0" class="tap">
<tspan x="300.0" dy="-0.6em">NEW</tspan><tspan x="300.0" dy="1.2em">TAB</tspan></text>
<rect rx="6.0" ry="6.0" x="362.0" y="366.0" width="56.0" height="52.0" class=""/>
<text x="390.0" y="392.0" class="tap">←</text>
<text x="390.0" y="416.0" class="hold">mouse</text>
<rect rx="6.0" ry="6.0" x="422.0" y="338.0" width="56.0" height="52.0" class=""/>
<text x="450.0" y="364.0" class="tap">↑</text>
<text x="450.0" y="388.0" class="hold">mouse</text>
<rect rx="6.0" ry="6.0" x="482.0" y="338.0" width="56.0" height="52.0" class=""/>
<text x="510.0" y="364.0" class="tap">↓</text>
<text x="510.0" y="388.0" class="hold">mouse</text>
<rect rx="6.0" ry="6.0" x="542.0" y="338.0" width="56.0" height="52.0" class=""/>
<text x="570.0" y="364.0" class="tap">→</text>
<text x="570.0" y="388.0" class="hold">mouse</text>
<rect rx="6.0" ry="6.0" x="602.0" y="366.0" width="56.0" height="52.0" class=""/>
<text x="630.0" y="392.0" class="tap">⌫</text>
<rect rx="6.0" ry="6.0" x="32.0" y="422.0" width="56.0" height="52.0" class=""/>
<text x="60.0" y="448.0" class="tap">⌃</text>
<text x="60.0" y="472.0" class="hold">sticky</text>
<rect rx="6.0" ry="6.0" x="92.0" y="394.0" width="56.0" height="52.0" class=""/>
<text x="120.0" y="420.0" class="tap">⌥</text>
<text x="120.0" y="444.0" class="hold">sticky</text>
<rect rx="6.0" ry="6.0" x="152.0" y="394.0" width="56.0" height="52.0" class=""/>
<text x="180.0" y="420.0" class="tap">⌘</text>
<text x="180.0" y="444.0" class="hold">sticky</text>
<rect rx="6.0" ry="6.0" x="212.0" y="394.0" width="56.0" height="52.0" class=""/>
<text x="240.0" y="420.0" class="tap">⇧</text>
<text x="240.0" y="444.0" class="hold">sticky</text>
<rect rx="6.0" ry="6.0" x="272.0" y="422.0" width="56.0" height="52.0" class=""/>
<text x="300.0" y="448.0" class="tap">
<tspan x="300.0" dy="-0.6em">SWITCH</tspan><tspan x="300.0" dy="1.2em">WIN</tspan></text>
<rect rx="6.0" ry="6.0" x="362.0" y="422.0" width="56.0" height="52.0" class=""/>
<text x="390.0" y="448.0" class="tap">←</text>
<rect rx="6.0" ry="6.0" x="422.0" y="394.0" width="56.0" height="52.0" class=""/>
<text x="450.0" y="420.0" class="tap">↓</text>
<rect rx="6.0" ry="6.0" x="482.0" y="394.0" width="56.0" height="52.0" class=""/>
<text x="510.0" y="420.0" class="tap">↑</text>
<rect rx="6.0" ry="6.0" x="542.0" y="394.0" width="56.0" height="52.0" class=""/>
<text x="570.0" y="420.0" class="tap">→</text>
<rect rx="6.0" ry="6.0" x="602.0" y="422.0" width="56.0" height="52.0" class=""/>
<text x="630.0" y="448.0" class="tap">↩</text>
<rect rx="6.0" ry="6.0" x="92.0" y="450.0" width="56.0" height="52.0" class=""/>
<text x="120.0" y="476.0" class="tap">
<tspan x="120.0" dy="-0.6em">prev</tspan><tspan x="120.0" dy="1.2em">space</tspan></text>
<rect rx="6.0" ry="6.0" x="152.0" y="450.0" width="56.0" height="52.0" class=""/>
<text x="180.0" y="476.0" class="tap">
<tspan x="180.0" dy="-0.6em">VOL</tspan><tspan x="180.0" dy="1.2em">DN</tspan></text>
<rect rx="6.0" ry="6.0" x="212.0" y="450.0" width="56.0" height="52.0" class=""/>
<text x="240.0" y="476.0" class="tap">
<tspan x="240.0" dy="-0.6em">VOL</tspan><tspan x="240.0" dy="1.2em">UP</tspan></text>
<rect rx="6.0" ry="6.0" x="422.0" y="450.0" width="56.0" height="52.0" class=""/>
<text x="450.0" y="476.0" class="tap">⌘K</text>
<rect rx="6.0" ry="6.0" x="482.0" y="450.0" width="56.0" height="52.0" class=""/>
<rect rx="6.0" ry="6.0" x="542.0" y="450.0" width="56.0" height="52.0" class=""/>
<rect rx="6.0" ry="6.0" x="212.0" y="506.0" width="56.0" height="52.0" class=""/>
<rect rx="6.0" ry="6.0" x="272.0" y="506.0" width="56.0" height="52.0" class=""/>
<rect rx="6.0" ry="6.0" x="362.0" y="506.0" width="56.0" height="52.0" class=""/>
<text x="390.0" y="532.0" class="tap">lclk</text>
<rect rx="6.0" ry="6.0" x="422.0" y="506.0" width="56.0" height="52.0" class=""/>
<text x="450.0" y="532.0" class="tap">num</text>
<rect rx="6.0" ry="6.0" x="166.0" y="379.0" width="28.0" height="26.0" class="combo"/>
<text x="180.0" y="392.0" class="combo">
<tspan x="180.0" dy="-0.6em">first</tspan><tspan x="180.0" dy="1.2em">tab</tspan></text>
<rect rx="6.0" ry="6.0" x="226.0" y="379.0" width="28.0" height="26.0" class="combo"/>
<text x="240.0" y="392.0" class="combo">
<tspan x="240.0" dy="-0.6em">last</tspan><tspan x="240.0" dy="1.2em">tab</tspan></text>
<rect rx="6.0" ry="6.0" x="286.0" y="407.0" width="28.0" height="26.0" class="combo"/>
<text x="300.0" y="420.0" class="combo">
<tspan x="300.0" dy="-0.6em">NEW</tspan><tspan x="300.0" dy="1.2em">WIN</tspan></text>
</g>
<g class="layer-sym">
<text x="30.0" y="588.0" class="label">sym:</text>
<rect rx="6.0" ry="6.0" x="32.0" y="646.0" width="56.0" height="52.0" class=""/>
<text x="60.0" y="672.0" class="tap">ESC</text>
<rect rx="6.0" ry="6.0" x="92.0" y="618.0" width="56.0" height="52.0" class=""/>
<text x="120.0" y="644.0" class="tap">^</text>
<rect rx="6.0" ry="6.0" x="152.0" y="618.0" width="56.0" height="52.0" class=""/>
<text x="180.0" y="644.0" class="tap">,</text>
<rect rx="6.0" ry="6.0" x="212.0" y="618.0" width="56.0" height="52.0" class=""/>
<text x="240.0" y="644.0" class="tap">.</text>
<rect rx="6.0" ry="6.0" x="272.0" y="646.0" width="56.0" height="52.0" class=""/>
<text x="300.0" y="672.0" class="tap">~</text>
<rect rx="6.0" ry="6.0" x="362.0" y="646.0" width="56.0" height="52.0" class=""/>
<text x="390.0" y="672.0" class="tap">`</text>
<rect rx="6.0" ry="6.0" x="422.0" y="618.0" width="56.0" height="52.0" class=""/>
<text x="450.0" y="644.0" class="tap">;</text>
<rect rx="6.0" ry="6.0" x="482.0" y="618.0" width="56.0" height="52.0" class=""/>
<text x="510.0" y="644.0" class="tap">:</text>
<rect rx="6.0" ry="6.0" x="542.0" y="618.0" width="56.0" height="52.0" class=""/>
<text x="570.0" y="644.0" class="tap">&quot;</text>
<rect rx="6.0" ry="6.0" x="602.0" y="646.0" width="56.0" height="52.0" class=""/>
<text x="630.0" y="672.0" class="tap">&#x27;</text>
<rect rx="6.0" ry="6.0" x="32.0" y="702.0" width="56.0" height="52.0" class=""/>
<text x="60.0" y="728.0" class="tap">-</text>
<rect rx="6.0" ry="6.0" x="92.0" y="674.0" width="56.0" height="52.0" class=""/>
<text x="120.0" y="700.0" class="tap">*</text>
<rect rx="6.0" ry="6.0" x="152.0" y="674.0" width="56.0" height="52.0" class=""/>
<text x="180.0" y="700.0" class="tap">=</text>
<rect rx="6.0" ry="6.0" x="212.0" y="674.0" width="56.0" height="52.0" class=""/>
<text x="240.0" y="700.0" class="tap">_</text>
<rect rx="6.0" ry="6.0" x="272.0" y="702.0" width="56.0" height="52.0" class=""/>
<text x="300.0" y="728.0" class="tap">$</text>
<rect rx="6.0" ry="6.0" x="362.0" y="702.0" width="56.0" height="52.0" class=""/>
<text x="390.0" y="728.0" class="tap">#</text>
<rect rx="6.0" ry="6.0" x="422.0" y="674.0" width="56.0" height="52.0" class=""/>
<text x="450.0" y="700.0" class="tap">⇧</text>
<text x="450.0" y="724.0" class="hold">sticky</text>
<rect rx="6.0" ry="6.0" x="482.0" y="674.0" width="56.0" height="52.0" class=""/>
<text x="510.0" y="700.0" class="tap">⌘</text>
<text x="510.0" y="724.0" class="hold">sticky</text>
<rect rx="6.0" ry="6.0" x="542.0" y="674.0" width="56.0" height="52.0" class=""/>
<text x="570.0" y="700.0" class="tap">⌥</text>
<text x="570.0" y="724.0" class="hold">sticky</text>
<rect rx="6.0" ry="6.0" x="602.0" y="702.0" width="56.0" height="52.0" class=""/>
<text x="630.0" y="728.0" class="tap">⌃</text>
<text x="630.0" y="752.0" class="hold">sticky</text>
<rect rx="6.0" ry="6.0" x="92.0" y="730.0" width="56.0" height="52.0" class=""/>
<text x="120.0" y="756.0" class="tap">%</text>
<rect rx="6.0" ry="6.0" x="152.0" y="730.0" width="56.0" height="52.0" class=""/>
<text x="180.0" y="756.0" class="tap">@</text>
<rect rx="6.0" ry="6.0" x="212.0" y="730.0" width="56.0" height="52.0" class=""/>
<text x="240.0" y="756.0" class="tap">/</text>
<rect rx="6.0" ry="6.0" x="422.0" y="730.0" width="56.0" height="52.0" class=""/>
<text x="450.0" y="756.0" class="tap">!</text>
<rect rx="6.0" ry="6.0" x="482.0" y="730.0" width="56.0" height="52.0" class=""/>
<text x="510.0" y="756.0" class="tap">&amp;</text>
<rect rx="6.0" ry="6.0" x="542.0" y="730.0" width="56.0" height="52.0" class=""/>
<text x="570.0" y="756.0" class="tap">?</text>
<rect rx="6.0" ry="6.0" x="212.0" y="786.0" width="56.0" height="52.0" class=""/>
<text x="240.0" y="812.0" class="tap">num</text>
<rect rx="6.0" ry="6.0" x="272.0" y="786.0" width="56.0" height="52.0" class=""/>
<rect rx="6.0" ry="6.0" x="362.0" y="786.0" width="56.0" height="52.0" class=""/>
<rect rx="6.0" ry="6.0" x="422.0" y="786.0" width="56.0" height="52.0" class=""/>
<rect rx="6.0" ry="6.0" x="106.0" y="659.0" width="28.0" height="26.0" class="combo"/>
<text x="120.0" y="672.0" class="combo">&lt;</text>
<rect rx="6.0" ry="6.0" x="166.0" y="659.0" width="28.0" height="26.0" class="combo"/>
<text x="180.0" y="672.0" class="combo">&gt;</text>
<rect rx="6.0" ry="6.0" x="166.0" y="715.0" width="28.0" height="26.0" class="combo"/>
<text x="180.0" y="728.0" class="combo">+</text>
<rect rx="6.0" ry="6.0" x="226.0" y="715.0" width="28.0" height="26.0" class="combo"/>
<text x="240.0" y="728.0" class="combo">\</text>
<rect rx="6.0" ry="6.0" x="106.0" y="715.0" width="28.0" height="26.0" class="combo"/>
<text x="120.0" y="728.0" class="combo">|</text>
</g>
<g class="layer-num">
<text x="30.0" y="868.0" class="label">num:</text>
<rect rx="6.0" ry="6.0" x="32.0" y="926.0" width="56.0" height="52.0" class=""/>
<text x="60.0" y="952.0" class="tap">1</text>
<rect rx="6.0" ry="6.0" x="92.0" y="898.0" width="56.0" height="52.0" class=""/>
<text x="120.0" y="924.0" class="tap">2</text>
<rect rx="6.0" ry="6.0" x="152.0" y="898.0" width="56.0" height="52.0" class=""/>
<text x="180.0" y="924.0" class="tap">3</text>
<rect rx="6.0" ry="6.0" x="212.0" y="898.0" width="56.0" height="52.0" class=""/>
<text x="240.0" y="924.0" class="tap">4</text>
<rect rx="6.0" ry="6.0" x="272.0" y="926.0" width="56.0" height="52.0" class=""/>
<text x="300.0" y="952.0" class="tap">5</text>
<rect rx="6.0" ry="6.0" x="362.0" y="926.0" width="56.0" height="52.0" class=""/>
<text x="390.0" y="952.0" class="tap">6</text>
<rect rx="6.0" ry="6.0" x="422.0" y="898.0" width="56.0" height="52.0" class=""/>
<text x="450.0" y="924.0" class="tap">7</text>
<rect rx="6.0" ry="6.0" x="482.0" y="898.0" width="56.0" height="52.0" class=""/>
<text x="510.0" y="924.0" class="tap">8</text>
<rect rx="6.0" ry="6.0" x="542.0" y="898.0" width="56.0" height="52.0" class=""/>
<text x="570.0" y="924.0" class="tap">9</text>
<rect rx="6.0" ry="6.0" x="602.0" y="926.0" width="56.0" height="52.0" class=""/>
<text x="630.0" y="952.0" class="tap">0</text>
<rect rx="6.0" ry="6.0" x="32.0" y="982.0" width="56.0" height="52.0" class=""/>
<text x="60.0" y="1008.0" class="tap">⌃</text>
<text x="60.0" y="1032.0" class="hold">sticky</text>
<rect rx="6.0" ry="6.0" x="92.0" y="954.0" width="56.0" height="52.0" class=""/>
<text x="120.0" y="980.0" class="tap">⌥</text>
<text x="120.0" y="1004.0" class="hold">sticky</text>
<rect rx="6.0" ry="6.0" x="152.0" y="954.0" width="56.0" height="52.0" class=""/>
<text x="180.0" y="980.0" class="tap">⌘</text>
<text x="180.0" y="1004.0" class="hold">sticky</text>
<rect rx="6.0" ry="6.0" x="212.0" y="954.0" width="56.0" height="52.0" class=""/>
<text x="240.0" y="980.0" class="tap">⇧</text>
<text x="240.0" y="1004.0" class="hold">sticky</text>
<rect rx="6.0" ry="6.0" x="272.0" y="982.0" width="56.0" height="52.0" class=""/>
<rect rx="6.0" ry="6.0" x="362.0" y="982.0" width="56.0" height="52.0" class=""/>
<rect rx="6.0" ry="6.0" x="422.0" y="954.0" width="56.0" height="52.0" class=""/>
<text x="450.0" y="980.0" class="tap">⇧</text>
<text x="450.0" y="1004.0" class="hold">sticky</text>
<rect rx="6.0" ry="6.0" x="482.0" y="954.0" width="56.0" height="52.0" class=""/>
<text x="510.0" y="980.0" class="tap">⌘</text>
<text x="510.0" y="1004.0" class="hold">sticky</text>
<rect rx="6.0" ry="6.0" x="542.0" y="954.0" width="56.0" height="52.0" class=""/>
<text x="570.0" y="980.0" class="tap">⌥</text>
<text x="570.0" y="1004.0" class="hold">sticky</text>
<rect rx="6.0" ry="6.0" x="602.0" y="982.0" width="56.0" height="52.0" class=""/>
<text x="630.0" y="1008.0" class="tap">⌃</text>
<text x="630.0" y="1032.0" class="hold">sticky</text>
<rect rx="6.0" ry="6.0" x="92.0" y="1010.0" width="56.0" height="52.0" class=""/>
<text x="120.0" y="1036.0" class="tap">
<tspan x="120.0" dy="-0.6em">BT</tspan><tspan x="120.0" dy="1.2em">1</tspan></text>
<rect rx="6.0" ry="6.0" x="152.0" y="1010.0" width="56.0" height="52.0" class=""/>
<text x="180.0" y="1036.0" class="tap">
<tspan x="180.0" dy="-0.6em">BT</tspan><tspan x="180.0" dy="1.2em">2</tspan></text>
<rect rx="6.0" ry="6.0" x="212.0" y="1010.0" width="56.0" height="52.0" class=""/>
<text x="240.0" y="1036.0" class="tap">
<tspan x="240.0" dy="-0.6em">BT</tspan><tspan x="240.0" dy="1.2em">3</tspan></text>
<rect rx="6.0" ry="6.0" x="422.0" y="1010.0" width="56.0" height="52.0" class=""/>
<rect rx="6.0" ry="6.0" x="482.0" y="1010.0" width="56.0" height="52.0" class=""/>
<rect rx="6.0" ry="6.0" x="542.0" y="1010.0" width="56.0" height="52.0" class=""/>
<rect rx="6.0" ry="6.0" x="212.0" y="1066.0" width="56.0" height="52.0" class=""/>
<rect rx="6.0" ry="6.0" x="272.0" y="1066.0" width="56.0" height="52.0" class=""/>
<rect rx="6.0" ry="6.0" x="362.0" y="1066.0" width="56.0" height="52.0" class=""/>
<rect rx="6.0" ry="6.0" x="422.0" y="1066.0" width="56.0" height="52.0" class=""/>
<rect rx="6.0" ry="6.0" x="46.0" y="967.0" width="28.0" height="26.0" class="combo"/>
<text x="60.0" y="980.0" class="combo">
<tspan x="60.0" dy="-0.6em">BT</tspan><tspan x="60.0" dy="1.2em">0</tspan></text>
<rect rx="6.0" ry="6.0" x="466.0" y="1023.0" width="28.0" height="26.0" class="combo"/>
<text x="480.0" y="1036.0" class="combo">
<tspan x="480.0" dy="-0.6em">BT</tspan><tspan x="480.0" dy="1.2em">CLR</tspan></text>
</g>
</svg>
